<?xml version="1.0" standalone="no"?><!DOCTYPE svg PUBLIC "-//W3C//DTD SVG 1.1//EN" "http://www.w3.org/Graphics/SVG/1.1/DTD/svg11.dtd"><svg t="1660788727846" class="icon" viewBox="0 0 1024 1024" version="1.1" xmlns="http://www.w3.org/2000/svg" p-id="25673" xmlns:xlink="http://www.w3.org/1999/xlink" width="200" height="200"><defs><style type="text/css">@font-face { font-family: feedback-iconfont; src: url("//at.alicdn.com/t/font_1031158_u69w8yhxdu.woff2?t=1630033759944") format("woff2"), url("//at.alicdn.com/t/font_1031158_u69w8yhxdu.woff?t=1630033759944") format("woff"), url("//at.alicdn.com/t/font_1031158_u69w8yhxdu.ttf?t=1630033759944") format("truetype"); }
</style></defs><path d="M864.53 124.3h-491.4a71.21 71.21 0 0 0-71.22 71.22v299.11a71.21 71.21 0 0 0 71.22 71.22h441.55l120.65 98.83 0.37-168V195.52a71.22 71.22 0 0 0-71.17-71.22z" fill="#F0F0F0" p-id="25674"></path><path d="M650.88 359.32H159.47a71.22 71.22 0 0 0-71.22 71.22v301.11l0.37 168 120.65-98.83h441.61a71.21 71.21 0 0 0 71.21-71.22V430.54a71.21 71.21 0 0 0-71.21-71.22z" fill="#165dff" p-id="25675" data-spm-anchor-id="a313x.7781069.0.i11" class="selected"></path><path d="M277.65 537.36c-25.94 0-47 20.73-47 46.3s21 46.29 47 46.29 47-20.73 47-46.29-21.07-46.3-47-46.3z m127.52 0c-25.93 0-47 20.73-47 46.3s21 46.29 47 46.29 47-20.73 47-46.29-21.06-46.3-47-46.3z m127.53 0c-25.94 0-47 20.73-47 46.3s21 46.29 47 46.29 47-20.73 47-46.29-21.07-46.3-47-46.3z" fill="#EAEAEA" p-id="25676" data-spm-anchor-id="a313x.7781069.0.i10" class=""></path></svg>