<?xml version="1.0" standalone="no"?><!DOCTYPE svg PUBLIC "-//W3C//DTD SVG 1.1//EN" "http://www.w3.org/Graphics/SVG/1.1/DTD/svg11.dtd"><svg t="1667545012280" class="icon" viewBox="0 0 1024 1024" version="1.1" xmlns="http://www.w3.org/2000/svg" p-id="13157" xmlns:xlink="http://www.w3.org/1999/xlink" width="200" height="200"><path d="M512 512m-428.218182 0a428.218182 428.218182 0 1 0 856.436364 0 428.218182 428.218182 0 1 0-856.436364 0Z" fill="#257AE7" p-id="13158"></path><path d="M611.644509 688.872727H421.664582c-19.502545 0-35.337309-15.490327-35.337309-34.583272V614.4h260.654545v39.889455c0 19.083636-15.825455 34.583273-35.337309 34.583272z" fill="#80B7F9" p-id="13159"></path><path d="M540.8768 633.018182h-48.444509c-7.177309 0-13.014109 6.255709-13.014109 13.963636s5.8368 13.963636 13.014109 13.963637h48.444509c7.177309 0 13.014109-6.255709 13.014109-13.963637s-5.808873-13.963636-13.014109-13.963636z" fill="#FFFFFF" p-id="13160"></path><path d="M603.908655 325.818182H420.091345c-28.886109 0-52.382255 23.784727-52.382254 53.033891v266.295854c0 29.249164 23.496145 53.033891 52.382254 53.033891h183.81731c28.886109 0 52.382255-23.784727 52.382254-53.033891V378.852073c0-29.230545-23.496145-53.033891-52.382254-53.033891z m-183.81731 24.482909h183.81731c15.546182 0 28.206545 12.8 28.206545 28.550982v218.093382H391.8848V378.852073c0-15.750982 12.660364-28.560291 28.206545-28.560291z m183.81731 323.425745H420.091345c-15.546182 0-28.206545-12.809309-28.206545-28.560291v-23.738181h240.2304v23.738181c0 15.750982-12.660364 28.560291-28.206545 28.560291z" fill="#FFFFFF" p-id="13161"></path></svg>