<?xml version="1.0" standalone="no"?><!DOCTYPE svg PUBLIC "-//W3C//DTD SVG 1.1//EN" "http://www.w3.org/Graphics/SVG/1.1/DTD/svg11.dtd"><svg t="1667545714192" class="icon" viewBox="0 0 1024 1024" version="1.1" xmlns="http://www.w3.org/2000/svg" p-id="4010" xmlns:xlink="http://www.w3.org/1999/xlink" width="200" height="200"><path d="M488.755 883.61h48.896V993.33c333.312-35.02 511.079-365.721 482.355-598.579C991.13 161.792 740.916 0.922 459.674 35.328c-281.19 34.509-484.762 251.29-455.988 484.3C29.952 731.495 239.31 883.815 488.756 883.61z m314.778-225.178h-93.747V404.838a142.336 142.336 0 0 0-2.714-28.518 47.411 47.411 0 0 0-8.397-19.507 41.37 41.37 0 0 0-16.896-12.493c-7.782-3.38-18.585-5.12-31.897-5.12-27.495 0-48.999 7.22-64.052 21.3-14.899 13.977-22.17 32.409-22.17 56.32v241.612h-93.695V404.838c0-10.496-0.973-20.224-3.021-28.876a51.507 51.507 0 0 0-8.858-19.815 38.758 38.758 0 0 0-16.076-12.134 76.8 76.8 0 0 0-29.696-4.813c-15.975 0-29.696 3.02-40.704 8.909-11.418 5.99-20.736 13.312-27.7 21.606a83.302 83.302 0 0 0-15.308 25.907c-3.175 8.807-4.71 15.872-4.71 21.197v241.613h-93.8V264.397h90.01v30.72c29.39-26.01 66.868-39.22 111.668-39.22 26.112 0 50.227 5.274 71.628 15.617 15.668 7.526 28.365 18.688 37.786 33.382 11.827-12.698 25.805-23.091 41.677-31.18a167.475 167.475 0 0 1 76.749-17.818c20.582 0 39.577 2.201 56.422 6.502 17.562 4.403 32.973 11.52 45.824 21.094 13.21 9.882 23.552 22.784 30.822 38.4 7.22 15.412 10.855 33.792 10.855 54.784v281.754z" fill="#D5B561" p-id="4011"></path></svg>