<?xml version="1.0" standalone="no"?><!DOCTYPE svg PUBLIC "-//W3C//DTD SVG 1.1//EN" "http://www.w3.org/Graphics/SVG/1.1/DTD/svg11.dtd"><svg t="1667545692892" class="icon" viewBox="0 0 1024 1024" version="1.1" xmlns="http://www.w3.org/2000/svg" p-id="2677" xmlns:xlink="http://www.w3.org/1999/xlink" width="200" height="200"><path d="M840.9 204.2c-2.7-2.8-5.4-5.6-8.1-8.3C747.6 110.8 634.6 64 514.3 64h-3.2c-121.5 0.9-235.1 49.3-319.9 136.5-81.8 84.1-126.9 195.6-127 313.8 0 118.2 45 229.7 126.7 313.9 2.8 2.9 5.6 5.7 8.4 8.4C280.5 916 390.8 960 506 960c10.5 0 21.1-0.4 31.7-1.1L847 937.2l-7-99.7 97.1 6.8 21.5-306.4c8.8-124.1-34.2-245.7-117.7-333.7z m16.7 326.6l-21.5 305.6-305.5 21.5c-97.7 6.8-192.5-27.3-260.4-93.6-2.2-2.1-4.4-4.3-6.5-6.5-130.3-134.2-130.3-352.4 0.2-486.5 65.7-67.6 153.8-105.2 248-105.8h2.5c93.3 0 180.8 36.3 246.8 102.3 2.1 2.1 4.2 4.3 6.3 6.5 64 67.1 96.8 160.7 90.1 256.5zM378.9 388.4c-30.9 0-56 24.3-56 54.2v81.5c0 29.9 25.1 54.2 56 54.2 30.8 0 56-24.3 56-54.2v-81.5c-0.1-29.8-25.2-54.2-56-54.2z m223.3 0c-30.8 0-56 24.3-56 54.2v81.5c0 29.9 25.1 54.2 56 54.2 30.8 0 55.9-24.3 55.9-54.2v-81.5c0-29.8-25.1-54.2-55.9-54.2z" fill="#9D39F1" p-id="2678"></path></svg>