<?xml version="1.0" standalone="no"?><!DOCTYPE svg PUBLIC "-//W3C//DTD SVG 1.1//EN" "http://www.w3.org/Graphics/SVG/1.1/DTD/svg11.dtd"><svg t="1667545702212" class="icon" viewBox="0 0 1024 1024" version="1.1" xmlns="http://www.w3.org/2000/svg" p-id="3270" xmlns:xlink="http://www.w3.org/1999/xlink" width="200" height="200"><path d="M853.344 0H170.656C76.416 0 0 76.416 0 170.688v682.624C0 947.584 76.384 1024 170.656 1024h682.688c94.24 0 170.656-76.416 170.656-170.688V170.688C1024 76.416 947.616 0 853.344 0zM573.28 804.032c-51.872 0-100.64-26.944-117.344-58.784 0 0-25.664 97.76-31.904 121.696-11.552 44.48-42.752 100.224-63.648 134.24L325.408 988.8c-4.48-40.512-8.512-102.656 1.76-146.88 9.312-39.968 60.032-254.496 60.032-254.496s-15.328-30.656-15.328-76c0-71.2 41.28-124.352 92.64-124.352 43.68 0 64.8 32.8 64.8 72.128 0 43.936-27.968 109.6-42.4 170.464-12.064 50.976 25.568 92.544 75.808 92.544 91.008 0 160.96-95.968 160.96-234.464 0-122.592-88.096-208.288-213.856-208.288-145.664 0-231.2 109.28-231.2 222.176 0 44 16.96 91.2 38.112 116.832 4.192 5.056 4.8 9.504 3.552 14.688-3.872 16.192-12.512 50.976-14.208 58.08-2.24 9.376-7.424 11.36-17.12 6.848-63.936-29.76-103.936-123.264-103.936-198.336 0-161.504 117.344-309.824 338.304-309.824 177.6 0 315.648 126.56 315.648 295.712 0 176.448-111.264 318.464-265.664 318.464z" fill="#C92326" p-id="3271"></path></svg>