<?xml version="1.0" standalone="no"?><!DOCTYPE svg PUBLIC "-//W3C//DTD SVG 1.1//EN" "http://www.w3.org/Graphics/SVG/1.1/DTD/svg11.dtd"><svg t="1667545690633" class="icon" viewBox="0 0 1024 1024" version="1.1" xmlns="http://www.w3.org/2000/svg" p-id="2529" xmlns:xlink="http://www.w3.org/1999/xlink" width="200" height="200"><path d="M433.562 44.288C210.79 81.613 40.96 275.302 40.96 508.723c0 116.02 41.984 222.106 111.565 304.18 164.915-79.821 280.166-260.404 281.037-470.58V44.288z m78.54 583.322C482.765 749.107 395.11 852.89 285.901 921.907A468.685 468.685 0 0 0 512 979.712c82.022 0 159.13-20.992 226.202-57.805-109.21-69.017-196.813-172.8-226.1-294.297z m78.49-287.488c0 211.097 115.507 392.601 280.934 472.78A468.992 468.992 0 0 0 983.04 508.723c0-233.42-169.728-427.008-392.448-464.384v295.783z" fill="#2B80C3" p-id="2530"></path></svg>