<?xml version="1.0" standalone="no"?><!DOCTYPE svg PUBLIC "-//W3C//DTD SVG 1.1//EN" "http://www.w3.org/Graphics/SVG/1.1/DTD/svg11.dtd"><svg t="1667545709272" class="icon" viewBox="0 0 1024 1024" version="1.1" xmlns="http://www.w3.org/2000/svg" p-id="3714" xmlns:xlink="http://www.w3.org/1999/xlink" width="200" height="200"><path d="M682.667 469.333h-128v166.4c0 31.147 5.973 46.934 46.933 46.934h81.067v128s-43.947 4.266-89.6 4.266c-113.067 0-166.4-68.266-166.4-145.066V469.333h-85.334V349.867c102.827-8.534 111.787-87.04 119.467-136.534h93.867v128h128m170.666-256H170.667a85.038 85.038 0 0 0-85.334 85.334v682.666a85.333 85.333 0 0 0 85.334 85.334h682.666a85.333 85.333 0 0 0 85.334-85.334V170.667a85.333 85.333 0 0 0-85.334-85.334z" fill="#36465F" p-id="3715"></path></svg>