<?xml version="1.0" standalone="no"?><!DOCTYPE svg PUBLIC "-//W3C//DTD SVG 1.1//EN" "http://www.w3.org/Graphics/SVG/1.1/DTD/svg11.dtd"><svg t="1667545711732" class="icon" viewBox="0 0 1024 1024" version="1.1" xmlns="http://www.w3.org/2000/svg" p-id="3862" xmlns:xlink="http://www.w3.org/1999/xlink" width="200" height="200"><path d="M928 0H96C43.2 0 0 43.2 0 96v832c0 52.8 43.2 96 96 96h832c52.8 0 96-43.2 96-96V96c0-52.8-43.2-96-96-96z m-98.6 716.8l-93.6 1.4s-20.2 4-46.6-14.2c-35-24-68-86.6-93.8-78.4-26 8.2-25.2 64.4-25.2 64.4s0.2 12-5.8 18.4c-6.4 7-19.2 8.4-19.2 8.4h-41.8s-92.4 5.6-173.8-79.2c-88.8-92.4-167.2-275.8-167.2-275.8s-4.6-12 0.4-17.8c5.6-6.6 20.6-7 20.6-7l100.2-0.6s9.4 1.6 16.2 6.6c5.6 4 8.6 11.8 8.6 11.8s16.2 41 37.6 78c41.8 72.2 61.4 88 75.6 80.4C442.2 502 436 411 436 411s0.4-33-10.4-47.6c-8.4-11.4-24.2-14.8-31-15.6-5.6-0.8 3.6-13.8 15.6-19.8 18-8.8 49.8-9.4 87.4-9 29.2 0.2 37.8 2.2 49.2 4.8 34.6 8.4 22.8 40.6 22.8 117.8 0 24.8-4.4 59.6 13.4 71 7.6 5 26.4 0.8 73.4-79 22.2-37.8 39-82.2 39-82.2s3.6-8 9.2-11.4c5.8-3.4 13.6-2.4 13.6-2.4l105.4-0.6s31.6-3.8 36.8 10.6c5.4 15-11.8 50-54.8 107.4-70.6 94.2-78.6 85.4-19.8 139.8 56 52 67.6 77.4 69.6 80.6 22.8 38.4-26 41.4-26 41.4z" fill="#4A76A8" p-id="3863"></path></svg>