<?xml version="1.0" standalone="no"?><!DOCTYPE svg PUBLIC "-//W3C//DTD SVG 1.1//EN" "http://www.w3.org/Graphics/SVG/1.1/DTD/svg11.dtd"><svg t="1667545699547" class="icon" viewBox="0 0 1024 1024" version="1.1" xmlns="http://www.w3.org/2000/svg" p-id="3122" xmlns:xlink="http://www.w3.org/1999/xlink" width="200" height="200"><path d="M281.7 245.65c25.06-9.84 52.84-12.47 79.31-7.55 23.17 4.22 45.32 13.35 65.39 25.56 14.52 10.59 27.57 23.04 39.94 36.03 13.65 14.91 26.52 30.66 37.19 47.86 2.53 3.78 3.93 8.43 7.49 11.43 3.21-2.87 5.42-6.6 8.03-9.99 4.76-6.5 10.21-12.46 15.24-18.75 11.6-14.29 23.13-28.71 36.38-41.53 13.98-13.78 29.88-25.84 47.69-34.24 34.38-16.05 74.21-20.3 111.2-11.82 34.7 8.1 65.85 29.1 87.64 57.13 23.99 30.73 40.25 67.55 46.26 106.1 3.4 21.22 3.34 42.86 1.17 64.2-2.82 28.45-10.92 56.81-26.59 80.94-8.61 13.37-19.32 25.32-31.24 35.82-47.85 42.77-101.03 79.23-156.47 111.42-82.84 48.28-170.71 86.97-257.69 127.03 9.03-17.82 16.15-37.11 16.81-57.27 0.57-15.71-3.44-31.52-11.33-45.1-9.28-16.12-23-29.14-37.63-40.38-30.56-23.28-65.79-39.19-97.91-60.05-28.32-18.15-55.09-39.97-73.92-68.18-12.3-18.22-20.93-38.84-25.58-60.32-6.14-28.23-6.2-57.61-1.55-86.07 5.95-35.46 19.26-69.9 40.18-99.25 19.92-28.04 47.95-50.41 79.99-63.02z" fill="#EA51A1" p-id="3123"></path></svg>