<svg xmlns="http://www.w3.org/2000/svg" xmlns:xlink="http://www.w3.org/1999/xlink" viewBox="0 0 24 24"><g fill="none"><path d="M12 1.998c5.524 0 10.002 4.478 10.002 10.002C22.002 17.523 17.523 22 12 22C6.476 22.001 1.998 17.523 1.998 12C1.998 6.476 6.476 1.998 12 1.998zm0 1.5a8.502 8.502 0 1 0 0 17.003a8.502 8.502 0 0 0 0-17.003zm0 10c1.631 0 3.16.654 4.281 1.795a.75.75 0 1 1-1.07 1.05A4.485 4.485 0 0 0 12 14.998a4.485 4.485 0 0 0-3.217 1.352a.75.75 0 1 1-1.071-1.05A5.985 5.985 0 0 1 12 13.498zM9 8.75a1.25 1.25 0 1 1 0 2.499A1.25 1.25 0 0 1 9 8.75zm6 0a1.25 1.25 0 1 1 0 2.499a1.25 1.25 0 0 1 0-2.499z" fill="currentColor"></path></g></svg>
