<svg xmlns="http://www.w3.org/2000/svg" xmlns:xlink="http://www.w3.org/1999/xlink" viewBox="0 0 24 24"><g fill="none"><path d="M12 1.998c5.524 0 10.002 4.478 10.002 10.002C22.002 17.523 17.524 22 12 22C6.476 22.001 1.998 17.523 1.998 12C1.998 6.476 6.476 1.998 12 1.998zm0 1.5a8.502 8.502 0 1 0 0 17.003a8.502 8.502 0 0 0 0-17.003zM8.462 14.783A4.492 4.492 0 0 0 12 16.5a4.491 4.491 0 0 0 3.535-1.714a.75.75 0 1 1 1.177.93A5.991 5.991 0 0 1 12 18a5.991 5.991 0 0 1-4.716-2.29a.75.75 0 1 1 1.178-.928zM9 8.75a1.25 1.25 0 1 1 0 2.499A1.25 1.25 0 0 1 9 8.75zm6 0a1.25 1.25 0 1 1 0 2.499a1.25 1.25 0 0 1 0-2.499z" fill="currentColor"></path></g></svg>
