<svg xmlns="http://www.w3.org/2000/svg" xmlns:xlink="http://www.w3.org/1999/xlink" viewBox="0 0 24 24"><g fill="none"><path d="M10.25 10a1.25 1.25 0 1 0-2.499 0a1.25 1.25 0 0 0 2.499 0zm6 0a1.25 1.25 0 1 0-2.499 0a1.25 1.25 0 0 0 2.499 0zm-6.114 5.106a.75.75 0 0 0-.772 1.286c.767.46 1.72.67 2.636.67c.916 0 1.87-.21 2.636-.67a.75.75 0 1 0-.772-1.286c-.483.29-1.154.456-1.864.456c-.71 0-1.38-.166-1.864-.456zM22.002 12c0-5.524-4.478-10.002-10.002-10.002C6.476 1.998 2 6.476 2 12C1.999 17.523 6.476 22 12 22c5.524 0 10.002-4.478 10.002-10.001zM3.499 12a8.502 8.502 0 1 1 17.003 0a8.502 8.502 0 0 1-17.003 0z" fill="currentColor"></path></g></svg>
